<?xml version="1.0" encoding="utf-8"?>
<!-- Generator: Adobe Illustrator 24.3.0, SVG Export Plug-In . SVG Version: 6.00 Build 0)  -->
<svg version="1.1" id="Layer_1" xmlns="http://www.w3.org/2000/svg" xmlns:xlink="http://www.w3.org/1999/xlink" x="0px" y="0px"
	 viewBox="0 0 16 16" style="enable-background:new 0 0 16 16;" xml:space="preserve">
<style type="text/css">
	.st0{fill:#212424;}
	.st1{fill:#FFFFFF;}
	.st2{fill:#68DBD4;}
	.st3{fill:url(#SVGID_1_);}
	.st4{fill:url(#SVGID_2_);}
	.st5{fill:url(#SVGID_3_);}
	.st6{fill:url(#SVGID_4_);}
	.st7{fill:url(#SVGID_5_);}
	.st8{fill:url(#SVGID_6_);}
	.st9{fill:url(#SVGID_7_);}
	.st10{fill:url(#SVGID_8_);}
	.st11{fill:url(#SVGID_9_);}
	.st12{fill:url(#SVGID_10_);}
</style>
<g>
	<linearGradient id="SVGID_1_" gradientUnits="userSpaceOnUse" x1="8.9732" y1="7.2586" x2="18.8736" y2="7.6859">
		<stop  offset="0" style="stop-color:#129387"/>
		<stop  offset="0.5" style="stop-color:#68DBD4"/>
		<stop  offset="1" style="stop-color:#129387"/>
	</linearGradient>
	<polygon class="st3" points="14.3,8.6 16,6.2 9.9,6.2 9.3,8.6 	"/>
	<linearGradient id="SVGID_2_" gradientUnits="userSpaceOnUse" x1="8.8339" y1="10.4868" x2="18.7342" y2="10.9141">
		<stop  offset="0" style="stop-color:#129387"/>
		<stop  offset="0.5" style="stop-color:#68DBD4"/>
		<stop  offset="1" style="stop-color:#129387"/>
	</linearGradient>
	<polygon class="st4" points="12,11.8 13.7,9.4 9.1,9.4 8.5,11.8 	"/>
	<linearGradient id="SVGID_3_" gradientUnits="userSpaceOnUse" x1="2.785" y1="9.1873" x2="1.2181" y2="15.74">
		<stop  offset="0" style="stop-color:#129387"/>
		<stop  offset="1" style="stop-color:#68DBD4"/>
	</linearGradient>
	<polygon class="st5" points="0,15.7 2.4,15.7 3.4,11.9 2.1,6.9 	"/>
	<linearGradient id="SVGID_4_" gradientUnits="userSpaceOnUse" x1="6.7372" y1="12.5797" x2="9.7286" y2="0.4002">
		<stop  offset="0" style="stop-color:#129387"/>
		<stop  offset="1" style="stop-color:#68DBD4"/>
	</linearGradient>
	<polygon class="st6" points="6.1,10.1 7.3,15 9.9,4.5 10.3,4.6 11.1,4.8 9.8,0.3 6.5,3.6 7.3,3.8 7.6,3.9 	"/>
	<linearGradient id="SVGID_5_" gradientUnits="userSpaceOnUse" x1="2.3119" y1="6.1935" x2="7.1196" y2="15.5953">
		<stop  offset="0" style="stop-color:#129387"/>
		<stop  offset="0.5" style="stop-color:#68DBD4"/>
		<stop  offset="1" style="stop-color:#129387"/>
	</linearGradient>
	<polygon class="st7" points="4.8,6.2 2.4,6.2 4.7,15.7 4.7,15.7 7.1,15.7 	"/>
</g>
</svg>
